<?xml version="1.0" encoding="utf-8"?>
<!-- Generator: Adobe Illustrator 16.0.0, SVG Export Plug-In . SVG Version: 6.00 Build 0)  -->
<!DOCTYPE svg PUBLIC "-//W3C//DTD SVG 1.1//EN" "http://www.w3.org/Graphics/SVG/1.1/DTD/svg11.dtd">
<svg version="1.1" id="Layer_1" xmlns="http://www.w3.org/2000/svg" xmlns:xlink="http://www.w3.org/1999/xlink" x="0px" y="0px"
	 width="512px" height="512px" viewBox="0 0 512 512" enable-background="new 0 0 512 512" xml:space="preserve">
<path fill="#FFFFFF" d="M256,6C117.93,6,6,117.929,6,256c0,138.072,111.93,250,250,250s250-111.928,250-250
	C506,117.929,394.07,6,256,6z M365.074,201.434c0.105,2.331,0.157,4.668,0.157,7.008c0,71.535-54.451,154.02-154.015,154.02
	c-30.579,0-59.027-8.961-82.979-24.325c4.236,0.503,8.544,0.763,12.912,0.763c25.362,0,48.697-8.654,67.228-23.174
	c-23.684-0.438-43.679-16.087-50.568-37.591c3.31,0.633,6.699,0.969,10.182,0.969c4.94,0,9.724-0.661,14.262-1.898
	c-24.758-4.975-43.422-26.854-43.422-53.078c0-0.23,0-0.453,0.006-0.679c7.299,4.056,15.649,6.488,24.517,6.767
	c-14.524-9.712-24.079-26.274-24.079-45.057c0-9.92,2.67-19.217,7.332-27.211c26.69,32.75,66.589,54.299,111.572,56.557
	c-0.924-3.96-1.399-8.095-1.399-12.335c0-29.895,24.236-54.131,54.13-54.131c15.567,0,29.638,6.57,39.514,17.096
	c12.327-2.432,23.91-6.935,34.375-13.137c-4.045,12.638-12.626,23.246-23.807,29.945c10.951-1.311,21.382-4.218,31.094-8.524
	C384.824,184.279,375.649,193.812,365.074,201.434z"/>
</svg>
