<?xml version="1.0" encoding="utf-8"?>
<!-- Generator: Adobe Illustrator 16.0.0, SVG Export Plug-In . SVG Version: 6.00 Build 0)  -->
<!DOCTYPE svg PUBLIC "-//W3C//DTD SVG 1.1//EN" "http://www.w3.org/Graphics/SVG/1.1/DTD/svg11.dtd">
<svg version="1.1" id="Layer_1" xmlns="http://www.w3.org/2000/svg" xmlns:xlink="http://www.w3.org/1999/xlink" x="0px" y="0px"
	 width="512px" height="512px" viewBox="0 0 512 512" enable-background="new 0 0 512 512" xml:space="preserve">
<g>
	<path fill="#FFFFFF" d="M376.583,196.14c-0.658-14.443-3.072-22.287-5.101-27.508c-2.375-6.434-6.161-12.254-11.082-17.033
		c-4.777-4.92-10.598-8.707-17.032-11.082c-5.221-2.027-13.063-4.441-27.507-5.1c-15.622-0.713-20.308-0.863-59.862-0.863
		l0.001-0.002c-39.556,0-44.241,0.152-59.862,0.865c-14.443,0.658-22.287,3.072-27.506,5.1c-6.436,2.375-12.256,6.162-17.034,11.082
		c-4.92,4.777-8.708,10.598-11.083,17.033c-2.028,5.223-4.441,13.064-5.101,27.508c-0.713,15.623-0.863,20.307-0.863,59.861
		c0,39.557,0.15,44.242,0.863,59.861c0.659,14.443,3.072,22.289,5.101,27.508c2.375,6.436,6.162,12.254,11.082,17.033
		c4.778,4.92,10.599,8.707,17.033,11.082c5.221,2.027,13.062,4.441,27.508,5.1c15.619,0.713,20.303,0.865,59.861,0.865
		s44.244-0.152,59.862-0.865c14.443-0.658,22.287-3.07,27.507-5.1c12.92-4.984,23.131-15.195,28.114-28.115
		c2.028-5.221,4.441-13.064,5.101-27.508c0.712-15.621,0.864-20.305,0.864-59.861C377.448,216.447,377.295,211.761,376.583,196.14z
		 M256,332.072c-42.014,0-76.072-34.059-76.072-76.072c0-42.012,34.059-76.07,76.072-76.07c42.013,0,76.071,34.059,76.071,76.07
		C332.071,298.013,298.012,332.072,256,332.072z M335.077,194.701c-9.818,0-17.776-7.959-17.776-17.777s7.958-17.777,17.776-17.777
		c9.816,0,17.775,7.959,17.775,17.777S344.893,194.701,335.077,194.701z"/>
	<path fill="#FFFFFF" d="M256,6C117.929,6,6,117.929,6,256C6,394.072,117.929,506,256,506c138.071,0,250-111.928,250-250
		C506,117.929,394.071,6,256,6z M403.248,317.078c-0.72,15.768-3.223,26.535-6.886,35.957
		c-7.695,19.898-23.426,35.629-43.324,43.326c-9.423,3.662-20.19,6.166-35.958,6.885c-15.799,0.721-20.846,0.893-61.077,0.893
		c-40.233,0-45.276-0.172-61.077-0.893c-15.768-0.719-26.535-3.223-35.96-6.885c-9.884-3.721-18.838-9.551-26.237-17.088
		c-7.536-7.398-13.367-16.352-17.087-26.238c-3.662-9.422-6.166-20.189-6.886-35.957c-0.724-15.799-0.895-20.846-0.895-61.078
		c0-40.23,0.171-45.277,0.895-61.076c0.717-15.768,3.221-26.537,6.88-35.959c3.721-9.887,9.554-18.84,17.091-26.238
		c7.399-7.537,16.354-13.368,26.239-17.087c9.421-3.662,20.19-6.166,35.958-6.886c15.799-0.721,20.846-0.892,61.077-0.892
		c-0.001,0-0.001,0-0.001,0H256l0,0c40.231,0,45.277,0.171,61.075,0.895c15.769,0.717,26.537,3.221,35.96,6.881
		c9.885,3.72,18.841,9.552,26.24,17.089c7.535,7.398,13.366,16.354,17.086,26.238c3.663,9.422,6.166,20.191,6.886,35.959
		c0.721,15.799,0.892,20.846,0.892,61.076C404.139,296.232,403.968,301.277,403.248,317.078z"/>
</g>
<circle fill="#FFFFFF" cx="256" cy="256" r="49.379"/>
</svg>
