<?xml version="1.0" encoding="UTF-8"?>
<svg width="1440px" height="1440px" viewBox="0 0 1440 1440" version="1.1" xmlns="http://www.w3.org/2000/svg" xmlns:xlink="http://www.w3.org/1999/xlink">
    <!-- Generator: Sketch 43.2 (39069) - http://www.bohemiancoding.com/sketch -->
    <title>squig</title>
    <desc>Created with Sketch.</desc>
    <defs></defs>
    <g id="Page-1" stroke="none" stroke-width="1" fill="none" fill-rule="evenodd" stroke-linecap="round" opacity="0.5" stroke-linejoin="round">
        <g id="squig" stroke="#FF321E" stroke-width="211">
            <path d="M116,301.2052 C193.823741,304.047861 264.869311,266.332467 335.977338,241.936646 C345.819286,238.56006 356.334678,237.197333 366.301974,234.162376 C406.539755,221.910312 489.198018,189.340449 537.129142,199.63842 C539.497179,200.147192 538.47366,204.582846 537.129142,206.483059 C532.535893,212.974715 487.344685,268.379053 475.043694,281.764969 C458.268435,300.019774 440.373118,317.351218 423.671334,335.665358 C413.347054,346.986323 403.457732,358.667891 393.996858,370.635901 C379.473516,389.007934 364.959102,407.425951 351.746149,426.650746 C344.855563,436.67652 339.281057,447.467951 333.793964,458.230869 C331.036385,463.639853 328.812583,469.306984 327.059469,475.073601 C320.864179,495.452119 315.313127,516.002878 309.97093,536.593321 C307.890396,544.61233 306.103626,552.710942 304.79876,560.873104 C303.512841,568.916746 303.543163,577.116353 302.207823,585.152887 C301.064308,592.034951 299.337501,598.832961 297.375289,605.550093 C291.102304,627.024056 284.635639,648.456212 277.511439,669.694654 C275.931301,674.405313 273.746028,678.943274 271.29125,683.311019 C264.66527,695.100513 257.715236,706.740053 250.301749,718.108396 C249.826512,718.837157 248.326153,718.515775 247.856371,719.24765 C246.992003,720.594252 246.63418,722.250507 246.633681,723.822894 C246.630927,732.51383 244.899995,741.632293 247.846667,749.8708 C249.547897,754.627215 255.263965,757.175786 259.607774,760.096744 C263.062241,762.419672 266.978599,764.186763 271.009837,765.446681 C274.665424,766.589194 279.659505,769.755863 282.4119,767.223918 C294.82198,755.807811 371.129917,653.046261 372.871503,650.445817 C379.155427,641.063002 381.674704,629.801514 387.514664,620.169001 C397.459422,603.765976 409.965561,588.824752 420.110009,572.529952 C430.969186,555.087099 439.829727,536.599298 450.473461,519.039695 C492.165396,450.258021 533.487332,380.965254 577.497297,313.536486 C623.870223,242.487369 638.590051,206.794985 709.353668,160.293141 C729.689103,146.929845 781.730305,127.799034 808.275058,135.958674 C814.975964,138.018478 820.014227,143.478823 824.858995,148.28996 C832.059208,155.440194 838.796581,163.139822 844.160019,171.594542 C855.973825,190.217375 866.664482,209.504658 876.211947,229.240798 C884.498716,246.370878 891.292228,264.134406 897.570195,282.001933 C901.355569,292.77537 904.177964,303.862466 906.35221,315.022074 C913.146956,349.897026 918.726642,384.972963 924.459656,420.01573 C925.565814,426.777063 926.743411,433.573222 926.86622,440.412935 C927.546231,478.28547 929.277669,516.236548 926.86622,554.046694 C925.815302,570.524475 921.365382,586.738138 916.52188,602.60626 C914.861311,608.046559 912.443186,614.046385 907.545787,617.343651 C902.362635,620.833306 894.12324,617.836005 888.865811,621.226229 C858.371016,640.890628 831.159515,664.723179 801.627898,685.644211 C757.559985,716.863166 711.753143,742.688293 665.414483,770.304461 C655.347838,776.303817 646.29111,783.737856 636.108755,789.562412 C592.071665,814.752701 585.227925,812.918357 543.329923,840.400486 C378.746249,948.355749 488.920147,877.24034 384.186232,954.845394 C363.728662,970.00391 340.687062,987.897851 318.461828,1001.30873 C295.429641,1015.20654 267.541338,1031.67261 253.960113,1055.34583 C247.887204,1065.93143 231.904312,1093.70091 237.114172,1109.43762 C238.503493,1113.63415 244.044797,1104.94195 245.837963,1104.30642 C249.210934,1103.11096 252.638536,1101.66806 256.240526,1101.52664 C276.355282,1100.73688 296.811409,1098.24117 316.637498,1101.52664 C339.684071,1105.34578 360.504032,1117.11642 383.177028,1122.56182 C404.639891,1127.71658 426.606105,1131.25222 448.658835,1133.23435 C475.901806,1135.68299 503.409324,1137.55034 530.714874,1135.82274 C550.746354,1134.55536 570.727881,1130.5201 589.685375,1124.31172 C597.822592,1121.64686 603.923253,1115.11549 610.364351,1109.73838 C639.837036,1085.1342 668.436976,1061.06602 688.99492,1029.03362 C722.827755,976.316926 698.91553,1001.93339 719.707712,961.817629 C759.998246,884.082378 832.896475,816.485489 919.238967,785.15122 C934.362462,779.662802 949.992824,774.195591 966.166948,773.138925 C1046.1506,767.913541 1170.09108,750.075859 1193.96562,846.133212 C1198.8453,865.766245 1200.89142,904.106056 1198.09947,920.667771 C1189.19396,973.494869 1124.08212,989.443277 1077.50931,997.435268 C1061.81953,1000.12767 1045.48611,998.848943 1029.92146,1002.11988 C970.555707,1014.59571 880.747188,1021.05131 837.609898,1074.96834 C805.441008,1115.17604 777.653971,1172.96657 773.22463,1224.30177 C771.276893,1246.87567 764.901318,1268.77938 783.598082,1284.983 C813.983426,1311.31657 869.834415,1305.48696 904.246467,1304.91539 C921.983805,1304.62078 944.195965,1288.27685 957.278191,1277.80114 C995.266769,1247.38146 1007.35258,1238.72291 1034.5017,1202.63771 C1062.57978,1165.31778 1101.15852,1081.51339 1160.62307,1060.96008 C1168.83626,1058.12127 1211.33986,1058.79433 1214.21762,1059.00967 C1216.53492,1059.18307 1218.49039,1060.77143 1220.45722,1061.93528 C1232.39438,1068.99895 1245.09696,1075.14432 1255.8958,1083.67225 C1268.08456,1093.29779 1278.72805,1104.59726 1288.97634,1116.04529 C1291.43338,1118.78997 1293.39938,1129.43843 1293.66332,1125.8611 C1295.46274,1101.47272 1292.42626,1076.93973 1293.66332,1052.52048 C1296.15464,1003.34212 1303.25597,954.403593 1304.84219,905.192144 C1306.98456,838.726612 1305.6488,772.195864 1304.84219,705.704197 C1304.72651,696.168607 1302.43187,686.744101 1302.07658,677.213731 C1299.61064,611.065398 1298.841,544.867723 1296.3804,478.719214 C1296.07791,470.587344 1295.41969,462.421792 1293.78947,454.430317 C1290.05702,436.133575 1286.06802,417.822495 1280.32048,399.9922 C1277.5647,391.443104 1272.97769,383.475226 1268.3944,375.648619 C1261.55602,363.971125 1252.9673,353.250291 1246.11429,341.580365 C1238.77865,329.088588 1233.01229,315.828849 1225.87199,303.23763 C1224.51532,300.845287 1222.1142,299.082539 1220.68041,296.73021 C1217.52466,291.552779 1215.84875,285.576438 1212.15069,280.725969 C1195.03458,258.275994 1180.37629,279.058229 1169.95821,299.646701 C1154.58797,330.021762 1143.22516,362.075105 1131.49201,393.849342 C1115.04425,438.391123 1100.4086,483.507513 1085.44709,528.509175 C1079.1134,547.559801 1084.33768,573.681992 1067.61135,585.991378 L1066.38866,588.279001 C1065.07166,589.248217 1063.45477,589.880901 1061.82783,590.247632 C1060.47535,590.552497 1058.445,591.322914 1057.65516,590.247632 C1010.95439,526.669122 1004.51782,446.104725 994.104429,371.729585 C976.891181,248.788149 987.191985,334.29563 984.769293,267.692902 C984.173186,251.305187 980.626172,235.041675 984.254987,218.787003" id="Path-2"></path>
        </g>
    </g>
</svg>